# xmcd
#
# Track frame offsets:
#	150
#	16339
#	33226
#	49856
#	57848
#	82669
#	95726
#	111425
#	122137
#	135776
#	147772
#	167338
#	180616
#	197450
#	217833
#	224771
#	241776
#	261276
#	278664
#	286517
#	308741
#	329897
#
# Disc length: 4666 seconds
#
# Revision: 0
# Processed by: cddbd v1.5.2PL0 Copyright (c) Steve Scherf et al.
# Submitted via: EZCDAudioConverter 1.3.4.1
#
DISCID=32123816
DTITLE=Jack Bruce - Can You Follow? 3/6
DYEAR=2008
DGENRE=
TTITLE0=Jack Bruce - Things We Like
TTITLE1=Jack Bruce - Ministry Of Bag [Demo]
TTITLE2=Jack Bruce - Never Tell Your Mother She's Out Of Tune
TTITLE3=Jack Bruce - Boston Ball Game (1967)
TTITLE4=Jack Bruce - To Isengard
TTITLE5=Jack Bruce - Rope Ladder To The Moon
TTITLE6=Jack Bruce - Theme From An Imaginary Western
TTITLE7=Jack Bruce - Weird Of Hermiston
TTITLE8=Jack Bruce - Tickets To Waterfalls
TTITLE9=Jack Bruce - The Clearout
TTITLE10=Tony Williams' Lifetime - To Whom It May Concern - Them
TTITLE11=Tony Williams' Lifetime - To Whom It May Concern - Us
TTITLE12=Tony Williams' Lifetime - One Word
TTITLE13=Tony Williams' Lifetime - Two Worlds
TTITLE14=Jack Bruce - Can You Follow?
TTITLE15=Jack Bruce - Escape To The Royal Wood (On Ice)
TTITLE16=Jack Bruce - Folk Song
TTITLE17=Jack Bruce - You Burned The Tables On Me
TTITLE18=Jack Bruce - There's A Forest
TTITLE19=Jack Bruce - Morning Story
TTITLE20=West Bruce and Laing - Out Into The Fields
TTITLE21=West Bruce and Laing - Pollution Woman
EXTD=
EXTT0=
EXTT1=
EXTT2=
EXTT3=
EXTT4=
EXTT5=
EXTT6=
EXTT7=
EXTT8=
EXTT9=
EXTT10=
EXTT11=
EXTT12=
EXTT13=
EXTT14=
EXTT15=
EXTT16=
EXTT17=
EXTT18=
EXTT19=
EXTT20=
EXTT21=
PLAYORDER=
